<?xml version="1.0" encoding="UTF-8"?>
<!-- Generated by Pixelmator Pro 3.6.18 -->
<svg width="1020" height="1020" viewBox="0 0 1020 1020" xmlns="http://www.w3.org/2000/svg">
    <path id="Path" fill="#363636" stroke="none" d="M 532.764893 661.078369 L 597.125 661.078369 L 597.125 651.638916 L 532.764893 651.638916 L 532.764893 661.078369 Z M 532.764893 687.680542 L 597.125 687.680542 L 597.125 678.241089 L 532.764893 678.241089 L 532.764893 687.680542 Z M 532.764893 634.476196 L 597.125 634.476196 L 597.125 625.036743 L 532.764893 625.036743 L 532.764893 634.476196 Z M 487.283722 651.638916 L 422.923584 651.638916 L 422.923584 661.078369 L 487.283722 661.078369 L 487.283722 651.638916 Z M 487.283722 678.241089 L 422.923584 678.241089 L 422.923584 687.680542 L 487.283722 687.680542 L 487.283722 678.241089 Z M 487.283722 625.036743 L 422.923584 625.036743 L 422.923584 634.476196 L 487.283722 634.476196 L 487.283722 625.036743 Z M 588.543701 455.125977 C 562.799622 453.409729 536.197449 453.409729 509.595245 453.409729 C 483.851196 453.409729 457.248993 454.267883 431.504944 455.125977 L 431.504944 584.704346 L 184.362106 584.704346 C 194.659729 646.490112 219.545639 704.843262 256.445465 752.898804 C 261.594238 746.033752 269.317474 741.743042 278.756958 741.743042 L 432.363098 741.743042 L 432.363098 876.470215 C 457.248993 883.335327 483.851196 886.767883 510.453369 886.767883 L 510.453369 887.625977 L 510.453369 886.767883 C 537.913696 886.767883 563.657776 883.335327 588.543701 876.470215 L 588.543701 741.743042 L 742.149841 741.743042 C 751.589294 741.743042 759.3125 746.033752 764.461304 752.898804 C 800.502991 704.843262 826.247009 646.490112 836.544678 584.704346 L 588.543701 584.704346 L 588.543701 455.125977 Z M 464.972229 495.458374 L 498.439484 510.904755 L 510.453369 476.579346 L 522.467285 511.762878 L 555.076416 495.458374 L 538.771851 528.925537 L 573.097229 540.939453 L 537.913696 552.953369 L 554.218262 585.5625 L 520.751038 570.116089 L 508.737091 604.441467 L 495.865051 569.257935 L 464.972229 586.420654 L 480.41864 552.953369 L 446.093262 540.939453 L 481.276794 528.925537 C 480.41864 528.067505 464.972229 495.458374 464.972229 495.458374 Z M 347.407745 709.133911 L 314.798615 692.829346 L 302.784729 728.012939 L 290.770844 693.6875 L 257.303558 709.133911 L 273.608154 676.524841 L 238.424606 664.510925 L 272.75 652.497009 L 256.445465 619.029785 L 289.054565 635.334351 L 301.068451 600.150818 L 313.082336 634.476196 L 346.549622 619.029785 L 330.245026 651.638916 L 365.428558 664.510925 L 331.10318 676.524841 L 347.407745 709.133911 Z M 400.612091 706.55957 L 386.023804 706.55957 L 386.023804 696.261902 L 400.612091 696.261902 L 400.612091 706.55957 Z M 400.612091 678.241089 L 386.023804 678.241089 L 386.023804 667.943481 L 400.612091 667.943481 L 400.612091 678.241089 Z M 400.612091 649.922607 L 386.023804 649.922607 L 386.023804 639.625 L 400.612091 639.625 L 400.612091 649.922607 Z M 400.612091 620.746033 L 386.023804 620.746033 L 386.023804 610.448364 L 400.612091 610.448364 L 400.612091 620.746033 Z M 408.335327 706.55957 L 408.335327 603.583313 L 477.844238 603.583313 C 492.432556 603.583313 503.588287 614.739075 503.588287 629.327393 L 503.588287 715.140869 C 498.439484 709.133911 491.574402 705.701355 483.851196 705.701355 C 482.134918 706.55957 428.930542 706.55957 408.335327 706.55957 Z M 555.076416 840.428589 L 521.609131 824.982117 L 509.595245 859.307495 L 496.723236 824.124023 L 464.972229 840.428589 L 481.276794 806.961304 L 446.951416 794.947388 L 482.134918 782.075378 L 464.972229 749.466309 L 498.439484 764.91272 L 510.453369 730.58728 L 523.325378 765.770813 L 555.934509 749.466309 L 540.488098 782.933472 L 574.813477 794.947388 L 539.630005 807.819458 L 555.076416 840.428589 Z M 671.782715 618.171631 L 705.25 633.618042 L 717.263916 599.292664 L 730.135925 634.476196 L 762.744995 618.171631 L 746.440491 651.638916 L 780.765869 663.652832 L 745.582336 675.666626 L 761.886902 708.275757 L 728.419617 692.829346 L 716.405762 727.154724 L 705.25 692.829346 L 672.640869 709.133911 L 688.945435 675.666626 L 654.620056 663.652832 L 689.803528 650.780762 C 688.08728 650.780762 671.782715 618.171631 671.782715 618.171631 Z M 619.436523 610.448364 L 634.02478 610.448364 L 634.02478 620.746033 L 619.436523 620.746033 L 619.436523 610.448364 Z M 619.436523 638.766846 L 634.02478 638.766846 L 634.02478 649.064453 L 619.436523 649.064453 L 619.436523 638.766846 Z M 619.436523 667.085327 L 634.02478 667.085327 L 634.02478 677.382935 L 619.436523 677.382935 L 619.436523 667.085327 Z M 619.436523 696.261902 L 634.02478 696.261902 L 634.02478 706.55957 L 619.436523 706.55957 L 619.436523 696.261902 Z M 611.713318 603.583313 L 611.713318 706.55957 L 537.055603 706.55957 C 529.332336 706.55957 521.609131 709.992065 517.318481 715.999023 L 517.318481 630.185547 C 517.318481 615.597229 528.474243 604.441467 543.0625 604.441467 L 547.353149 604.441467 C 546.495056 603.583313 611.713318 603.583313 611.713318 603.583313 Z M 738.717285 165.934509 C 675.215271 152.204346 591.118103 139.332336 509.595245 139.332336 C 387.740082 139.332336 259.877991 169.367065 203.241074 184.813477 C 192.085327 187.387878 183.503967 189.96228 178.355164 191.678589 L 178.355164 467.998047 C 215.254959 461.991089 366.286713 438.821411 509.595245 438.821411 C 652.903809 438.821411 803.935486 461.991089 840.835327 467.998047 L 840.835327 190.820435 C 835.686462 189.104187 827.963318 187.387878 815.949402 183.955383 C 797.928589 179.664673 770.468262 172.799622 738.717285 165.934509 Z M 392.888885 195.111084 C 398.03772 194.252991 386.881958 185.671631 393.74704 185.671631 C 398.03772 185.671631 413.484131 185.671631 424.639862 191.678589 C 427.214264 192.536682 428.072418 188.246033 432.363098 185.671631 C 432.363098 185.671631 434.079376 184.813477 434.9375 185.671631 C 439.22818 188.246033 440.944458 192.536682 443.51886 191.678589 C 454.674591 186.529785 470.121033 186.529785 474.411682 185.671631 C 482.134918 184.813477 470.979187 193.394836 475.269836 195.111084 C 501.013885 201.118042 519.892883 222.571411 519.892883 249.173584 C 519.892883 256.896851 518.176636 263.761902 515.602234 270.627014 C 513.885925 274.059509 510.453369 263.761902 508.737091 269.76886 C 507.878967 280.066467 505.304565 287.789673 499.297607 298.945435 C 494.148834 309.243042 484.70932 287.789673 482.134918 293.796631 C 476.986115 304.094238 465.830353 307.526794 457.248993 309.243042 C 456.390869 309.243042 455.532745 309.243042 456.390869 308.384888 C 456.390869 308.384888 458.965271 305.810547 458.965271 302.377991 C 458.965271 302.377991 458.965271 301.519836 459.823425 300.661682 C 465.830353 298.08728 470.979187 292.080383 471.83728 285.215271 C 473.553558 279.208313 476.12796 269.76886 479.560516 263.761902 C 486.425598 251.747986 477.844238 236.301575 480.41864 232.86908 C 485.567474 229.436523 488.141876 224.28772 488.141876 218.280762 C 488.141876 208.841248 480.41864 200.259949 470.121033 200.259949 C 464.972229 200.259949 459.823425 202.834351 457.248993 206.266846 L 456.390869 207.125 C 454.674591 208.841248 452.958313 210.557556 452.100189 212.273804 C 450.383911 213.990051 451.242065 218.280762 453.816467 219.138916 C 465.830353 222.571411 473.553558 249.173584 468.404785 257.754944 C 465.830353 262.045654 459.823425 276.633911 459.823425 280.066467 C 459.823425 285.215271 455.532745 289.505981 450.383911 289.505981 C 446.093262 289.505981 442.660736 286.931519 440.944458 283.499023 C 444.376984 281.782715 451.242065 276.633911 451.242065 272.343262 L 449.525787 257.754944 C 455.532745 256.896851 458.107147 253.464294 458.965271 248.315491 C 459.823425 248.315491 459.823425 247.457336 460.681549 247.457336 C 462.397827 245.741089 464.114105 240.592285 459.823425 241.450378 C 453.816467 242.308533 446.951416 242.308533 440.086304 244.02478 C 439.22818 244.02478 438.370056 244.882935 438.370056 245.741089 C 438.370056 246.599243 441.802582 264.620056 442.660736 268.910706 C 442.660736 269.76886 442.660736 269.76886 441.802582 269.76886 C 439.22818 269.76886 434.079376 268.910706 433.221222 268.910706 C 432.363098 268.910706 427.214264 268.910706 424.639862 269.76886 C 424.639862 269.76886 423.781738 269.76886 423.781738 268.910706 C 424.639862 264.620056 428.930542 246.599243 428.930542 246.599243 L 428.930542 244.882935 C 428.072418 243.166687 410.051575 241.450378 407.477173 241.450378 C 406.619049 241.450378 405.760895 241.450378 404.902771 242.308533 C 403.186493 244.882935 406.619049 247.457336 408.335327 248.315491 C 409.193451 253.464294 411.767853 256.896851 417.774811 257.754944 C 417.774811 258.613098 416.058533 272.343262 416.058533 272.343262 C 416.058533 277.492065 422.923584 280.924622 427.214264 283.499023 L 428.072418 284.357117 C 426.35614 287.789673 422.923584 290.364075 418.632935 290.364075 C 413.484131 290.364075 409.193451 286.073425 409.193451 280.924622 C 409.193451 277.492065 402.328369 262.045654 400.612091 257.754944 C 395.463318 248.315491 403.186493 221.713318 416.058533 219.138916 C 418.632935 218.280762 420.349213 214.848206 417.774811 212.273804 C 412.626007 207.125 406.619049 200.259949 398.895813 200.259949 C 389.45636 200.259949 380.875 207.983154 380.875 218.280762 C 380.875 229.436523 389.45636 231.152771 388.598206 234.585327 C 385.16568 244.882935 385.16568 256.038696 389.45636 263.761902 C 392.888885 268.910706 395.463318 278.35022 397.179565 284.357117 C 398.03772 291.222229 402.328369 296.371033 407.477173 299.803589 C 410.051575 301.519836 409.193451 303.236084 410.051575 305.810547 C 410.909729 306.66864 411.767853 307.526794 411.767853 308.384888 C 412.626007 309.243042 411.767853 309.243042 410.909729 309.243042 C 402.328369 308.384888 390.314484 304.952393 385.16568 293.796631 C 382.591278 287.789673 373.151764 308.384888 368.002991 298.945435 C 361.996033 288.647827 359.421631 280.066467 357.705353 269.76886 C 355.989075 263.761902 352.556549 274.059509 350.840302 270.627014 C 348.265869 263.761902 346.549622 256.896851 346.549622 249.173584 C 348.265869 222.571411 367.144836 201.118042 392.888885 195.111084 Z M 466.688507 213.131958 L 466.688507 211.415649 C 467.546631 210.557556 469.262909 209.699402 470.979187 209.699402 C 475.269836 209.699402 478.702362 213.131958 478.702362 217.422607 C 478.702362 219.997009 477.844238 221.713318 476.12796 223.429565 C 475.269836 224.28772 474.411682 223.429565 474.411682 222.571411 C 472.695435 219.138916 470.121033 215.70636 466.688507 213.131958 Z M 448.667633 301.519836 C 446.951416 306.66864 440.086304 304.952393 435.795624 307.526794 L 434.079376 307.526794 C 430.64682 304.094238 423.781738 305.810547 421.207367 300.661682 C 421.207367 300.661682 421.207367 298.945435 422.065491 298.945435 C 427.214264 298.08728 431.504944 296.371033 434.9375 292.080383 C 434.9375 292.080383 435.795624 291.222229 436.653778 292.080383 C 439.22818 295.512878 443.51886 297.229187 447.809509 298.08728 C 448.667633 299.803589 449.525787 300.661682 448.667633 301.519836 Z M 396.321442 224.28772 C 396.321442 224.28772 395.463318 225.145813 394.605164 224.28772 C 392.888885 222.571411 392.030762 220.855164 392.030762 218.280762 C 392.030762 213.990051 395.463318 210.557556 399.753967 210.557556 C 401.470215 210.557556 404.044647 211.415649 404.902771 213.131958 C 405.760895 213.990051 404.902771 214.848206 404.902771 214.848206 C 401.470215 216.564453 398.03772 219.997009 396.321442 224.28772 Z M 325.954376 325.547607 C 320.805573 325.547607 318.23114 327.263916 314.798615 329.838318 C 312.224213 331.554565 311.366089 326.405762 314.798615 316.966248 C 317.373016 309.243042 301.926605 304.952393 298.494049 308.384888 C 293.345245 312.675598 280.473236 320.398804 267.601196 306.66864 C 265.026794 304.094238 273.608154 304.952393 273.608154 302.377991 C 274.466278 298.945435 277.898834 297.229187 278.756958 295.512878 C 279.615082 294.654785 279.615082 292.938477 277.898834 292.080383 C 273.608154 290.364075 268.459351 285.215271 270.175598 276.633911 C 270.175598 275.775818 263.310516 274.917664 265.884918 273.201355 C 277.898834 262.045654 290.770844 268.910706 295.919647 272.343262 C 296.777771 272.343262 298.494049 273.201355 298.494049 271.485107 C 298.494049 268.052612 296.777771 265.478149 304.501007 259.471252 C 306.217255 258.613098 300.210327 253.464294 304.501007 253.464294 C 329.386932 259.471252 318.23114 285.215271 323.379974 290.364075 C 332.819458 298.945435 355.989075 305.810547 377.442444 310.101196 C 379.158722 310.101196 386.023804 312.675598 387.740082 313.533752 C 404.902771 322.115051 416.058533 321.256958 425.498016 317.824402 C 428.930542 316.966248 428.072418 320.398804 427.214264 321.256958 C 392.888885 353.866089 366.286713 346.142822 356.847229 340.135925 C 349.982147 335.845215 337.110138 335.845215 331.10318 344.426575 C 330.245026 345.284729 328.528778 346.142822 327.670654 343.568481 C 325.954376 337.561523 327.670654 333.270813 329.386932 328.122009 C 330.245026 326.405762 327.670654 325.547607 325.954376 325.547607 Z M 656.336365 356.440491 C 652.045654 360.73114 643.464294 365.021851 630.592285 364.163696 C 625.443481 364.163696 622.010925 365.879944 621.152771 366.738098 C 619.436523 368.454346 619.436523 369.3125 619.436523 370.170654 C 618.578369 372.745056 619.436523 376.177551 621.152771 377.89386 C 622.86908 379.610107 622.010925 381.326416 619.436523 381.326416 C 616.862122 382.184509 614.28772 382.184509 609.138916 379.610107 C 606.564514 378.751953 605.70636 379.610107 605.70636 381.326416 C 604.848206 383.900818 606.564514 387.333313 609.99707 389.907776 C 611.713318 391.624023 611.713318 393.340271 608.280762 394.198425 C 603.131958 395.914673 598.841248 393.340271 591.976196 389.907776 C 587.685547 387.333313 584.252991 387.333313 581.678589 390.765869 C 579.962341 392.482178 579.962341 394.198425 580.820435 395.056519 C 583.394836 397.63092 585.111145 403.637878 578.246033 412.219238 C 575.671631 414.79364 573.097229 407.070435 571.380981 407.928589 C 561.941467 412.219238 554.218262 406.21228 550.785706 402.779785 C 549.927612 401.921631 549.069458 401.921631 547.353149 402.779785 C 542.204407 406.21228 531.906738 411.361145 528.474243 401.921631 C 527.616089 400.205322 522.467285 403.637878 522.467285 401.063477 C 522.467285 385.617065 536.197449 383.042664 541.346252 382.184509 C 543.0625 382.184509 543.0625 381.326416 542.204407 379.610107 C 539.630005 376.177551 537.055603 371.886902 538.771851 367.596252 C 539.630005 364.163696 531.048645 363.305542 534.48114 361.589294 C 552.502014 353.007935 561.941467 369.3125 565.374023 371.028748 C 570.522827 373.603149 593.692505 366.738098 596.266846 353.866089 C 597.125 351.291687 591.118103 350.433533 585.111145 348.717285 C 584.252991 348.717285 583.394836 347.000977 585.111145 345.284729 C 598.841248 334.987122 609.99707 321.256958 635.741089 318.682556 C 639.173584 318.682556 640.031738 321.256958 640.031738 322.115051 C 640.889893 326.405762 641.747986 329.838318 643.464294 333.270813 C 646.896851 340.99408 651.1875 346.142822 656.336365 349.575378 C 658.052551 352.14978 657.194458 354.724182 656.336365 356.440491 Z M 761.886902 347.859131 C 764.461304 348.717285 764.461304 350.433533 762.744995 352.14978 C 761.028748 353.866089 758.454346 354.724182 752.447449 354.724182 C 749.872986 354.724182 749.872986 356.440491 749.872986 357.298584 C 749.872986 359.872986 753.305542 362.447449 757.596191 362.447449 C 760.170654 363.305542 760.170654 365.021851 758.454346 366.738098 C 755.021851 370.170654 749.872986 370.170654 741.291626 370.170654 C 733.568481 370.170654 727.561523 379.610107 731.852173 383.042664 C 735.284729 385.617065 741.291626 391.624023 736.142822 407.928589 C 734.426575 413.077393 731.852173 403.637878 729.277832 405.354187 C 722.41272 409.644836 717.263916 404.496033 713.83136 401.063477 C 712.973206 399.347229 711.256897 399.347229 710.398804 401.063477 C 707.824402 405.354187 700.959351 413.935547 687.229187 406.21228 C 684.654724 404.496033 677.789734 410.502991 677.789734 407.928589 C 675.215271 396.772827 681.222168 390.765869 685.512878 387.333313 C 686.371033 387.333313 688.08728 384.758911 684.654724 384.758911 C 680.364075 384.758911 674.357178 383.042664 673.499023 377.035706 C 673.499023 376.177551 667.492065 376.177551 667.492065 374.461304 C 669.208374 366.738098 686.371033 360.73114 698.384888 368.454346 C 708.682556 375.319458 721.554565 352.14978 712.115112 341.852173 C 705.25 334.128967 666.633911 355.582336 653.761902 328.122009 C 648.613098 316.966248 655.478149 307.526794 649.471252 306.66864 C 644.322449 305.810547 619.436523 300.661682 592.834351 322.115051 C 547.353149 359.014893 497.581329 338.419617 485.567474 330.696411 C 483.851196 329.838318 482.134918 331.554565 482.993042 333.270813 C 484.70932 338.419617 483.851196 342.710327 482.134918 346.142822 C 476.986115 353.007935 460.681549 360.73114 458.107147 361.589294 C 439.22818 367.596252 440.944458 382.184509 442.660736 388.191467 C 443.51886 389.907776 442.660736 391.624023 440.086304 390.765869 C 434.079376 389.907776 422.065491 386.47522 417.774811 374.461304 C 416.916687 372.745056 416.058533 372.745056 414.342255 374.461304 C 407.477173 379.610107 410.051575 387.333313 411.767853 389.907776 C 412.626007 391.624023 411.767853 392.482178 410.051575 392.482178 C 403.186493 393.340271 398.895813 385.617065 392.888885 386.47522 C 389.45636 386.47522 385.16568 389.907776 382.591278 391.624023 C 381.733124 392.482178 380.875 394.198425 381.733124 395.914673 C 388.598206 417.368042 377.442444 418.226196 376.58432 417.368042 C 375.726196 416.509949 376.58432 413.077393 373.151764 413.077393 C 361.996033 413.935547 358.563507 406.21228 357.705353 400.205322 C 357.705353 398.489075 356.847229 397.63092 355.130981 398.489075 C 350.840302 401.921631 339.68454 407.928589 332.819458 398.489075 C 331.961304 397.63092 328.528778 398.489075 326.8125 399.347229 C 325.096252 400.205322 325.096252 397.63092 325.096252 396.772827 C 325.954376 384.758911 334.535706 378.751953 338.826385 377.035706 C 340.542664 376.177551 340.542664 375.319458 339.68454 374.461304 C 336.251984 371.886902 329.386932 365.879944 331.961304 359.872986 C 331.961304 359.014893 326.8125 356.440491 327.670654 355.582336 C 341.400818 346.142822 357.705353 361.589294 360.279755 363.305542 C 362.854156 365.021851 374.868042 365.879944 405.760895 347.859131 C 425.498016 336.703369 435.795624 328.122009 440.944458 321.256958 C 441.802582 320.398804 442.660736 318.682556 445.235138 318.682556 C 457.248993 318.682556 470.121033 316.108154 479.560516 308.384888 C 481.276794 306.66864 482.993042 307.526794 483.851196 308.384888 C 501.872009 320.398804 510.453369 293.796631 513.885925 280.924622 C 514.74408 278.35022 514.74408 276.633911 517.318481 275.775818 C 582.536743 279.208313 705.25 278.35022 705.25 278.35022 C 705.25 278.35022 721.554565 279.208313 720.696472 269.76886 C 719.838257 253.464294 652.045654 254.322449 602.273804 261.1875 C 584.252991 263.761902 557.650818 265.478149 542.204407 259.471252 C 535.339294 256.896851 530.190491 252.60614 527.616089 247.457336 C 524.183533 240.592285 525.041687 237.159729 525.89978 232.86908 C 526.757935 229.436523 528.474243 226.862122 530.190491 223.429565 C 543.0625 203.692444 573.097229 201.976196 581.678589 201.976196 C 583.394836 201.976196 584.252991 201.118042 585.111145 200.259949 C 585.969238 195.969238 589.401794 184.813477 602.273804 184.813477 C 605.70636 184.813477 609.138916 183.097229 611.713318 182.239075 C 613.429565 181.380981 614.28772 182.239075 613.429565 183.097229 C 613.429565 184.813477 612.571472 186.529785 610.855164 188.246033 C 602.273804 195.969238 603.131958 199.401794 604.848206 200.259949 C 605.70636 201.118042 606.564514 200.259949 606.564514 200.259949 C 633.166626 177.090271 648.613098 192.536682 652.903809 197.685486 C 653.761902 198.54364 653.761902 200.259949 652.045654 200.259949 C 634.02478 204.550598 627.159729 219.997009 590.259949 217.422607 C 585.969238 217.422607 555.934509 215.70636 546.495056 229.436523 C 541.346252 237.159729 544.778809 244.882935 561.083374 248.315491 C 573.097229 250.889893 602.273804 246.599243 616.003967 245.741089 C 628.875977 244.882935 687.229187 237.159729 717.263916 245.741089 C 730.135925 249.173584 749.014893 259.471252 744.724182 279.208313 C 742.149841 291.222229 730.135925 296.371033 730.135925 296.371033 C 730.135925 296.371033 696.66864 319.54071 756.738098 320.398804 C 775.617065 320.398804 756.738098 335.845215 755.879944 340.135925 C 755.879944 343.568481 759.3125 346.142822 761.886902 347.859131 Z M 652.903809 218.280762 C 651.1875 218.280762 648.613098 219.138916 646.038696 220.855164 C 640.889893 224.28772 619.436523 233.727173 612.571472 222.571411 C 612.571472 222.571411 628.017883 221.713318 637.457336 213.131958 C 637.457336 213.131958 647.754944 209.699402 654.620056 214.848206 C 653.761902 216.564453 654.620056 218.280762 652.903809 218.280762 Z M 510.453369 99 C 307.075409 99 104.555557 153.0625 104.555557 153.0625 L 104.555557 423.375 C 104.555557 667.085327 278.756958 920.235107 509.595245 964 C 749.014893 916.802612 915.493042 667.085327 915.493042 423.375 L 915.493042 153.0625 C 915.493042 153.0625 746.440491 99 510.453369 99 Z M 855.423584 522.060547 C 855.423584 720.289673 704.391907 900.498047 510.453369 900.498047 C 315.656769 900.498047 164.625 720.289673 164.625 522.060547 L 164.625 180.522827 L 169.773819 178.80658 C 169.773819 178.80658 344.833344 124.744019 509.595245 124.744019 C 674.357178 124.744019 849.416687 178.80658 849.416687 178.80658 L 854.565491 180.522827 L 854.565491 522.060547 Z"/>
</svg>
