<?xml version="1.0" encoding="UTF-8"?>
<!-- Generated by Pixelmator Pro 3.6.18 -->
<svg width="151" height="151" viewBox="0 0 151 151" xmlns="http://www.w3.org/2000/svg">
    <g id="Group">
        <clipPath id="clipPath1">
            <path d="M 21.900002 19 L 128.100006 19 L 128.100006 199 L 21.900002 199 Z"/>
        </clipPath>
        <g id="g1" clip-path="url(#clipPath1)">
            <path id="Path" fill="#21409a" stroke="none" d="M 115.699997 100.400002 C 102 122.900002 72.699997 130 50.300003 116.300003 C 43.800003 112.300003 38.400002 106.900002 34.400002 100.400002 L 25.300003 108.900002 C 42.800003 135.100006 77.699997 143.300003 105 127.599998 C 112.699997 123.099998 119.600006 116.099998 124.699997 108.800003 L 115.699997 100.400002 Z"/>
            <path id="path1" fill="#ddb00a" stroke="none" d="M 35.400002 19 L 114.699997 19 L 114.699997 22 L 35.400002 22 Z"/>
            <path id="path2" fill="#21409a" stroke="none" d="M 114.600006 50.699997 C 114.5 59.5 116.5 94.599998 75 119.099998 C 33.400002 94.599998 35.5 59.5 35.400002 50.699997 L 35.400002 22 L 114.600006 22 L 114.600006 50.699997 Z"/>
            <path id="path3" fill="#ddb00a" stroke="none" d="M 40.599998 81.5 C 45.599998 93.800003 55.5 107.699997 75 119.199997 C 94.5 107.699997 104.399994 93.900002 109.399994 81.5 L 75 49.699997 L 40.599998 81.5 Z"/>
            <path id="path4" fill="#ffffff" fill-rule="evenodd" stroke="none" d="M 68.600006 29.899994 L 68.600006 45.199997 C 64.699997 43.899994 60.399994 44.5 56.899994 46.800003 L 56.899994 31.600006 C 59.199997 29.399994 64.600006 28.399994 68.600006 29.899994"/>
            <path id="path5" fill="#ffffff" fill-rule="evenodd" stroke="none" d="M 44.099998 29.899994 L 44.099998 45.199997 C 48 43.899994 52.300003 44.5 55.800003 46.800003 L 55.800003 31.699997 C 53.5 29.399994 48 28.399994 44.099998 29.899994"/>
            <path id="path6" fill="#ffffff" stroke="none" d="M 72.100006 42 L 72.100006 42 C 71.5 41.899994 71.100006 41.899994 70.800003 41.899994 L 70.800003 36.899994 C 71.100006 36.899994 71.5 36.899994 72.100006 37 L 72.199997 37 C 73.399994 37 73.5 36.5 73.5 36.5 C 73.300003 36 72.800003 35.600006 72.199997 35.600006 L 72.199997 35.600006 C 71.600006 35.5 71.199997 35.5 70.899994 35.5 L 70.899994 31.300003 L 69.899994 31.300003 L 69.899994 46.699997 C 64.100006 45.5 59.899994 46.100006 56.399994 48.600006 C 53 46.100006 48.699997 45.5 43.099998 46.699997 L 43.099998 31.199997 L 42.099998 31.199997 L 42.099998 35.399994 C 41.900002 35.399994 41.599998 35.399994 41.199997 35.5 L 41.199997 35.300003 C 41.199997 35.199997 41.099998 35.100006 41 35.100006 C 41 35.100006 41 35.100006 41 35.100006 L 39.599998 35.199997 C 39.5 35.199997 39.400002 35.300003 39.400002 35.399994 L 39.400002 37.199997 C 39.400002 37.300003 39.5 37.399994 39.599998 37.399994 L 41 37.300003 C 41.099998 37.300003 41.199997 37.199997 41.199997 37.100006 L 41.199997 37 L 42.099998 36.899994 L 42.099998 41.899994 C 41.900002 41.899994 41.599998 41.899994 41.199997 42 L 41.199997 41.800003 C 41.199997 41.699997 41.099998 41.600006 41 41.600006 C 41 41.600006 41 41.600006 41 41.600006 L 39.599998 41.800003 C 39.5 41.800003 39.400002 41.899994 39.400002 42 L 39.400002 43.800003 C 39.400002 43.899994 39.5 44 39.599998 44 L 41 43.899994 C 41.099998 43.899994 41.199997 43.800003 41.199997 43.699997 L 41.199997 43.5 L 42.099998 43.399994 L 42.099998 47.899994 L 42.699997 47.699997 C 48.5 46.300003 52.699997 47 56.100006 49.5 L 56.399994 49.699997 L 56.699997 49.5 C 60.100006 46.899994 64.300003 46.300003 70.100006 47.699997 L 70.699997 47.899994 L 70.699997 43.399994 C 71 43.399994 71.399994 43.399994 72 43.5 L 72.100006 43.5 C 73.300003 43.5 73.399994 43 73.399994 43 C 73.199997 42.399994 72.699997 42 72.100006 42"/>
            <path id="path7" fill="#ffffff" stroke="none" d="M 42.800003 120.400002 C 42.199997 121.099998 41.300003 121.199997 40.300003 120.5 C 39.900002 120.199997 39.5 119.800003 39.199997 119.300003 L 39.699997 118.599998 C 39.699997 118.5 39.800003 118.5 39.900002 118.599998 L 40.199997 118.900002 C 40.199997 118.900002 40.199997 119 40.199997 119 L 40 119.300003 C 40.199997 119.5 40.400002 119.800003 40.599998 120 C 41.099998 120.400002 41.699997 120.5 42 120.099998 C 42.300003 119.699997 42.300003 119.300003 41.599998 118.300003 C 41.199997 117.599998 41 116.900002 41.400002 116.300003 C 41.800003 115.699997 42.800003 115.5 43.800003 116.300003 C 44.099998 116.599998 44.400002 116.900002 44.699997 117.199997 L 44.099998 117.900002 C 44.099998 117.900002 44 117.900002 43.900002 117.900002 L 43.599998 117.599998 C 43.599998 117.599998 43.599998 117.5 43.599998 117.5 L 43.800003 117.199997 C 43.699997 117.099998 43.5 116.900002 43.400002 116.800003 C 42.900002 116.400002 42.300003 116.400002 42 116.800003 C 41.699997 117.199997 41.800003 117.5 42.400002 118.400002 C 43 119.300003 43.199997 119.900002 42.800003 120.400002"/>
            <path id="path8" fill="#ffffff" stroke="none" d="M 48.300003 124.599998 C 48.300003 124.599998 48.300003 124.599998 48.300003 124.599998 C 48.300003 124.699997 48.300003 124.699997 48.300003 124.599998 L 47.900002 125.400002 L 44.900002 123.599998 C 44.900002 123.599998 44.900002 123.5 44.900002 123.5 L 45.099998 123.199997 C 45.099998 123.199997 45.199997 123.199997 45.199997 123.199997 L 45.400002 123.300003 L 47.699997 119.400002 L 47.5 119.300003 C 47.5 119.300003 47.5 119.199997 47.5 119.199997 L 47.699997 118.900002 C 47.699997 118.900002 47.699997 118.900002 47.800003 118.900002 C 47.800003 118.900002 47.800003 118.900002 47.800003 118.900002 L 50.699997 120.599998 L 50.300003 121.400002 C 50.300003 121.400002 50.199997 121.400002 50.199997 121.400002 L 49.900002 121.199997 C 49.900002 121.199997 49.900002 121.099998 49.900002 121.099998 L 50 120.900002 L 48.400002 120 L 47.5 121.5 L 49.300003 122.5 L 49 123.099998 L 47.199997 122.099998 L 46.199997 123.699997 L 47.900002 124.699997 L 48 124.5 C 48 124.5 48.099998 124.5 48.099998 124.5 L 48.300003 124.599998 Z"/>
            <path id="path9" fill="#ffffff" stroke="none" d="M 54.600006 127.5 C 54.600006 127.5 54.600006 127.599998 54.600006 127.5 L 54.199997 128.399994 L 51 127 C 50.900002 127 50.900002 126.900002 51 126.900002 L 51.199997 126.599998 C 51.199997 126.599998 51.199997 126.599998 51.300003 126.599998 L 51.5 126.699997 L 53.300003 122.599998 L 53.100006 122.5 C 53.100006 122.5 53.100006 122.400002 53.100006 122.400002 L 53.300003 122.099998 C 53.300003 122.099998 53.399994 122.099998 53.399994 122.099998 L 56.5 123.400002 L 56 124 C 56 124 55.899994 124.099998 55.899994 124 L 55.600006 123.800003 C 55.600006 123.800003 55.600006 123.699997 55.600006 123.699997 L 55.699997 123.5 L 54.100006 122.900002 L 53.399994 124.5 L 55.300003 125.300003 L 55 125.900002 L 53.100006 125.099998 L 52.300003 126.800003 L 54.100006 127.599998 L 54.199997 127.400002 C 54.199997 127.300003 54.300003 127.300003 54.300003 127.400002 L 54.600006 127.5 Z"/>
            <path id="path10" fill="#ffffff" stroke="none" d="M 63.100006 125.300003 C 63.100006 125.300003 63.199997 125.400002 63.100006 125.400002 L 63 125.699997 C 63 125.699997 63 125.699997 62.899994 125.699997 L 62.699997 125.699997 L 60.5 127 L 61.5 130 L 61.699997 130.100006 C 61.800003 130.100006 61.800003 130.199997 61.699997 130.199997 L 61.600006 130.5 C 61.600006 130.5 61.5 130.5 61.5 130.5 L 60.800003 130.300003 L 59.800003 127.400002 L 59.199997 127.800003 L 58.800003 129.199997 L 59 129.300003 C 59 129.300003 59.100006 129.399994 59 129.399994 L 58.899994 129.699997 C 58.899994 129.699997 58.899994 129.699997 58.800003 129.699997 L 57.600006 129.399994 C 57.600006 129.399994 57.5 129.300003 57.600006 129.300003 L 57.699997 129 C 57.699997 129 57.800003 129 57.800003 129 L 58 129 L 59.199997 124.699997 L 59 124.599998 C 59 124.599998 59 124.5 59 124.5 L 59.100006 124.199997 C 59.100006 124.199997 59.199997 124.199997 59.199997 124.199997 L 60.399994 124.5 C 60.399994 124.5 60.399994 124.599998 60.399994 124.599998 C 60.399994 124.599998 60.399994 124.599998 60.399994 124.599998 L 60.300003 124.900002 C 60.300003 124.900002 60.300003 124.900002 60.199997 124.900002 L 60 124.900002 L 59.5 126.900002 L 61.899994 125.5 L 61.699997 125.400002 C 61.699997 125.400002 61.699997 125.300003 61.699997 125.300003 L 61.800003 125 C 61.800003 125 61.899994 125 61.899994 125 L 63.100006 125.300003 Z"/>
            <path id="path11" fill="#ffffff" stroke="none" d="M 75.800003 126.800003 C 75.899994 126.800003 75.899994 126.800003 75.899994 126.900002 L 75.899994 127.300003 C 75.899994 127.300003 75.899994 127.300003 75.800003 127.400002 L 75.600006 127.400002 L 74.100006 132.100006 C 74.100006 132.300003 73.899994 132.399994 73.699997 132.300003 L 73.100006 132.300003 C 73 132.300003 73 132.199997 73 132.199997 L 72.199997 127.900002 L 72.199997 127.900002 L 71 131.899994 C 71 132.100006 70.800003 132.199997 70.600006 132.199997 L 70.100006 132.199997 C 70 132.199997 70 132.199997 70 132.100006 L 69 127 L 68.800003 127 C 68.800003 127 68.699997 126.900002 68.699997 126.900002 L 68.699997 126.5 C 68.699997 126.5 68.699997 126.400002 68.800003 126.400002 L 70 126.5 C 70.100006 126.5 70.100006 126.5 70.100006 126.599998 L 70.100006 127 C 70.100006 127 70.100006 127 70 127 L 69.800003 127 L 70.5 131.199997 L 70.5 131.199997 L 71.800003 126.900002 C 71.899994 126.699997 72 126.599998 72.199997 126.599998 L 72.600006 126.599998 C 72.699997 126.599998 72.699997 126.599998 72.699997 126.699997 L 73.5 131.300003 L 73.5 131.300003 L 74.699997 127.199997 L 74.5 127.199997 C 74.5 127.199997 74.399994 127.199997 74.399994 127.099998 L 74.399994 126.699997 C 74.399994 126.699997 74.399994 126.699997 74.5 126.699997 L 75.800003 126.800003 Z"/>
            <path id="path12" fill="#ffffff" stroke="none" d="M 80.300003 131.5 C 80.300003 131.5 80.399994 131.5 80.300003 131.5 L 80.399994 132 C 80.399994 132 80.399994 132 80.399994 132.100006 L 79.199997 132.199997 C 79.199997 132.199997 79.100006 132.199997 79.100006 132.100006 L 79.100006 131.699997 C 79.100006 131.699997 79.100006 131.699997 79.100006 131.600006 L 79.300003 131.600006 L 78.899994 127.099998 L 78.699997 127.099998 C 78.699997 127.099998 78.600006 127.099998 78.600006 127 L 78.600006 126.599998 C 78.600006 126.599998 78.600006 126.5 78.699997 126.5 L 79.899994 126.400002 C 80 126.400002 80 126.400002 80 126.5 L 80 126.900002 C 80 126.900002 80 126.900002 80 127 L 79.800003 127 L 80.199997 131.5 L 80.300003 131.5 Z"/>
            <path id="path13" fill="#ffffff" stroke="none" d="M 87.100006 129.399994 C 87.300003 130.300003 86.699997 131.100006 85.5 131.300003 C 85 131.399994 84.399994 131.399994 83.899994 131.300003 L 83.699997 130.399994 C 83.699997 130.300003 83.699997 130.300003 83.800003 130.300003 L 84.199997 130.199997 C 84.199997 130.199997 84.300003 130.199997 84.300003 130.199997 L 84.399994 130.600006 C 84.699997 130.600006 85 130.600006 85.300003 130.600006 C 85.899994 130.5 86.399994 130.199997 86.300003 129.600006 C 86.199997 129 85.899994 128.899994 84.699997 128.699997 C 83.899994 128.600006 83.199997 128.300003 83.100006 127.5 C 83 126.699997 83.5 125.900002 84.699997 125.699997 C 85.100006 125.599998 85.600006 125.599998 86 125.599998 L 86.199997 126.5 C 86.199997 126.599998 86.199997 126.599998 86.100006 126.599998 L 85.699997 126.599998 C 85.699997 126.599998 85.600006 126.599998 85.600006 126.599998 L 85.5 126.199997 L 84.899994 126.300003 C 84.199997 126.400002 83.899994 126.800003 84 127.300003 C 84.100006 127.800003 84.399994 127.900002 85.5 128.100006 C 86.600006 128.300003 87 128.800003 87.100006 129.399994"/>
            <path id="path14" fill="#ffffff" stroke="none" d="M 90.699997 124.199997 C 92.800003 123.5 93.699997 124.300003 94.199997 125.900002 C 94.899994 127.900002 94.100006 128.899994 92.300003 129.5 L 90.800003 130 C 90.800003 130 90.699997 130 90.699997 129.899994 L 90.600006 129.5 M 90.699997 129.5 L 90.899994 129.399994 L 89.5 125.099998 L 89.300003 125.199997 C 89.300003 125.199997 89.199997 125.199997 89.199997 125.099998 L 89.100006 124.800003 C 89.100006 124.800003 89.100006 124.699997 89.100006 124.699997 L 90.699997 129.5 Z M 92.399994 128.899994 C 93.899994 128.399994 93.899994 127.300003 93.5 126.199997 C 93.100006 125.099998 92.5 124.300003 91 124.800003 L 90.399994 125 L 91.800003 129.100006 L 92.399994 128.899994 Z"/>
            <path id="path15" fill="#ffffff" stroke="none" d="M 101 122.800003 C 101.899994 124.5 101.5 125.699997 100.300003 126.300003 C 99 126.900002 97.899994 126.5 97 124.800003 C 96.399994 123.599998 96.199997 122 97.800003 121.199997 C 99.100006 120.599998 100.199997 121.300003 101 122.800003 M 97.699997 124.400002 C 98.100006 125.199997 98.899994 126.199997 99.899994 125.699997 C 100.800003 125.300003 100.800003 124.300003 100.199997 123.099998 C 99.800003 122.199997 99 121.300003 98 121.800003 C 97 122.400002 97.300003 123.599998 97.699997 124.400002"/>
            <path id="path16" fill="#ffffff" stroke="none" d="M 109.699997 119.800003 C 109.699997 119.800003 109.800003 119.800003 109.800003 119.800003 L 110 120.099998 C 110 120.099998 110 120.099998 110 120.199997 C 110 120.199997 110 120.199997 110 120.199997 L 109 120.900002 C 109 120.900002 108.899994 120.900002 108.899994 120.900002 L 108.699997 120.599998 C 108.699997 120.599998 108.699997 120.5 108.699997 120.5 L 108.800003 120.400002 L 106.699997 117.599998 L 107.5 121.099998 C 107.5 121.199997 107.5 121.300003 107.399994 121.400002 L 107.199997 121.599998 C 107.100006 121.599998 107.100006 121.599998 107 121.599998 L 103.899994 119.699997 L 105.800003 122.5 L 106 122.400002 C 106.100006 122.400002 106.100006 122.400002 106.100006 122.400002 L 106.300003 122.699997 C 106.300003 122.699997 106.300003 122.699997 106.300003 122.800003 C 106.300003 122.800003 106.300003 122.800003 106.300003 122.800003 L 105.300003 123.5 C 105.199997 123.5 105.199997 123.5 105.199997 123.5 L 105 123.199997 C 105 123.199997 105 123.199997 105 123.099998 L 105.199997 123 L 102.699997 119.199997 L 102.5 119.300003 C 102.5 119.300003 102.399994 119.300003 102.399994 119.199997 L 102.199997 118.900002 C 102.199997 118.900002 102.199997 118.800003 102.199997 118.800003 C 102.199997 118.800003 102.199997 118.800003 102.199997 118.800003 L 102.899994 118.300003 C 102.899994 118.300003 103 118.300003 103 118.300003 L 106.699997 120.5 L 105.800003 116.400002 C 105.800003 116.400002 105.800003 116.300003 105.800003 116.199997 L 106.5 115.699997 C 106.600006 115.699997 106.600006 115.699997 106.600006 115.800003 L 106.800003 116.099998 M 106.800003 116.199997 L 106.600006 116.300003 L 109.300003 119.900002 L 106.800003 116.199997 Z"/>
            <path id="path17" fill="#21409a" stroke="none" d="M 27.5 104.699997 L 33.300003 99.300003 L 34.599998 98.099998 L 35.300003 99.300003 C 36.599998 101.400002 38 103.400002 39.5 105.199997 L 41.5 103.400002 C 38.800003 100.199997 36.599998 96.5 35 92.599998 C 34.400002 91.099998 33.900002 89.600006 33.400002 88.100006 L 30.199997 96.199997 L 23.5 97.099998 L 23.5 97.199997 L 27.5 104.699997 Z"/>
            <path id="path18" fill="#ffffff" fill-rule="evenodd" stroke="none" d="M 106 29.899994 L 106 45.199997 C 102.100006 43.899994 97.800003 44.5 94.300003 46.800003 L 94.300003 31.600006 C 96.600006 29.399994 102.100006 28.399994 106 29.899994"/>
            <path id="path19" fill="#ffffff" fill-rule="evenodd" stroke="none" d="M 81.5 29.899994 L 81.5 45.199997 C 85.399994 43.899994 89.699997 44.5 93.199997 46.800003 L 93.199997 31.699997 C 90.899994 29.399994 85.5 28.399994 81.5 29.899994"/>
            <path id="path20" fill="#ffffff" stroke="none" d="M 109.5 42 L 109.5 42 C 108.899994 41.899994 108.5 41.899994 108.199997 41.899994 L 108.199997 36.899994 C 108.5 36.899994 108.899994 36.899994 109.5 37 L 109.600006 37 C 110.800003 37 110.899994 36.5 110.899994 36.5 C 110.699997 36 110.199997 35.600006 109.600006 35.600006 L 109.600006 35.600006 C 109 35.5 108.600006 35.5 108.300003 35.5 L 108.300003 31.300003 L 107.300003 31.300003 L 107.300003 46.699997 C 101.600006 45.5 97.399994 46.100006 94 48.600006 C 90.600006 46.100006 86.300003 45.5 80.600006 46.699997 L 80.600006 31.199997 L 79.600006 31.199997 L 79.600006 35.399994 C 79.399994 35.399994 79.100006 35.399994 78.699997 35.5 L 78.699997 35.300003 C 78.699997 35.199997 78.600006 35.100006 78.5 35.100006 C 78.5 35.100006 78.5 35.100006 78.5 35.100006 L 77.100006 35.199997 C 77 35.199997 76.899994 35.300003 76.899994 35.399994 L 76.899994 37.199997 C 76.899994 37.300003 77 37.399994 77.100006 37.399994 L 78.5 37.300003 C 78.600006 37.300003 78.699997 37.199997 78.699997 37.100006 L 78.699997 37 L 79.600006 36.899994 L 79.600006 41.899994 C 79.399994 41.899994 79.100006 41.899994 78.699997 42 L 78.699997 41.800003 C 78.699997 41.699997 78.600006 41.600006 78.5 41.600006 C 78.5 41.600006 78.5 41.600006 78.5 41.600006 L 77.100006 41.800003 C 77 41.800003 76.899994 41.899994 76.899994 42 L 76.899994 43.800003 C 76.899994 43.899994 77 44 77.100006 44 L 78.5 43.899994 C 78.600006 43.899994 78.699997 43.800003 78.699997 43.699997 L 78.699997 43.5 L 79.600006 43.399994 L 79.600006 47.899994 L 80.199997 47.699997 C 86 46.300003 90.300003 46.899994 93.600006 49.5 L 93.899994 49.699997 L 94.199997 49.5 C 97.600006 46.899994 101.800003 46.300003 107.600006 47.699997 L 108.199997 47.899994 L 108.199997 43.399994 C 108.5 43.399994 108.899994 43.399994 109.5 43.5 L 109.600006 43.5 C 110.800003 43.5 110.899994 43 110.899994 43 C 110.699997 42.5 110.199997 42.100006 109.600006 42.100006"/>
            <path id="path21" fill="#21409a" stroke="none" d="M 122.5 104.699997 L 116.699997 99.300003 L 115.399994 98.099998 L 114.699997 99.300003 C 113.399994 101.400002 112 103.400002 110.5 105.199997 L 108.5 103.400002 C 111.199997 100.199997 113.399994 96.5 115 92.599998 C 115.600006 91.099998 116.100006 89.600006 116.5 88.100006 L 119.699997 96.199997 L 126.399994 97.099998 L 126.399994 97.199997 L 122.5 104.699997 Z"/>
            <path id="path22" fill="#ffffff" stroke="none" d="M 77 93.699997 C 78.699997 94.699997 80.600006 95.300003 82.600006 95.400002 L 82.800003 95.400002 C 83.300003 95.400002 83.699997 95.199997 84.199997 95 C 84.5 94.800003 84.800003 94.599998 85 94.199997 C 85.199997 93.900002 85.399994 93.599998 85.399994 93.199997 C 85.300003 93.300003 85.100006 93.300003 85 93.300003 L 84.800003 93.300003 C 83 93.5 81.100006 93.300003 79.399994 92.699997 C 78.899994 93.199997 78.100006 93.400002 77.399994 93.199997 C 77.199997 93.400002 77.100006 93.599998 77 93.699997"/>
            <path id="path23" fill="#ffffff" stroke="none" d="M 80.399994 80.899994 C 80.300003 81.100006 80.300003 81.199997 80.199997 81.300003 C 79.899994 81.800003 79.399994 82.300003 78.899994 82.600006 C 78.899994 82.800003 78.899994 82.899994 78.899994 83.100006 C 79.899994 82.699997 80.899994 82.100006 81.899994 81.600006 C 85.699997 79.600006 88.300003 77.300003 89.199997 75.699997 C 89.199997 75.600006 89.300003 75.600006 89.300003 75.5 C 89.600006 75 89.699997 74.5 89.699997 73.899994 C 89.699997 73.100006 89.399994 72.300003 88.699997 71.699997 C 87.699997 73.899994 86.300003 75.800003 84.5 77.5 C 83.199997 78.800003 81.800003 79.899994 80.399994 80.899994"/>
            <path id="path24" fill="#ffffff" stroke="none" d="M 79.899994 90.400002 C 79.5 90.800003 78.899994 91.099998 78.300003 91.199997 C 78.199997 91.199997 78 91.199997 77.899994 91.199997 C 77.899994 91.300003 77.800003 91.5 77.800003 91.599998 C 81.199997 92.599998 84 92.800003 85.5 92.300003 L 85.699997 92.199997 C 86.199997 92.099998 86.600006 91.800003 87 91.5 C 87.300003 91.199997 87.5 90.900002 87.600006 90.5 C 87.699997 90.300003 87.699997 90 87.699997 89.699997 C 87.399994 89.800003 87.100006 89.899994 86.800003 90 C 85.399994 90.5 83.199997 90.599998 79.899994 90.400002"/>
            <path id="path25" fill="#ffffff" stroke="none" d="M 89.399994 81.600006 C 88.199997 83 84.899994 84.5 80.600006 85.5 C 80.300003 86 79.800003 86.399994 79.199997 86.600006 C 79 86.699997 78.800003 86.699997 78.600006 86.800003 C 78.600006 87 78.600006 87.100006 78.600006 87.199997 L 79.600006 87.199997 C 83.899994 87 87.199997 86 88.699997 85 L 88.800003 84.899994 C 89.199997 84.600006 89.600006 84.100006 89.899994 83.699997 C 90.100006 83.300003 90.199997 82.899994 90.199997 82.399994 C 90.199997 82 90.100006 81.5 89.899994 81.199997 C 89.800003 81.300003 89.699997 81.5 89.600006 81.600006 L 89.399994 81.600006"/>
            <path id="path26" fill="#ffffff" stroke="none" d="M 82 96.5 C 80 96.300003 78.199997 95.699997 76.399994 94.699997 C 76.300003 94.900002 76.199997 95 76.100006 95.199997 C 77.600006 96 79.100006 96.599998 80.699997 97 L 80.5 97.199997 C 80.199997 97.5 79.899994 97.599998 79.5 97.800003 C 79 97.900002 78.600006 98 78.100006 97.900002 L 78 97.900002 C 77 97.599998 76 97.199997 75.100006 96.599998 C 75 96.699997 74.800003 96.900002 74.699997 97 C 75.600006 97.699997 76.699997 98.199997 77.800003 98.5 C 77.600006 98.699997 77.300003 98.800003 77 98.900002 C 76.600006 99 76.199997 99 75.800003 98.900002 L 75.699997 98.900002 C 74.899994 98.699997 74.199997 98.300003 73.5 97.800003 C 73.300003 97.900002 73.199997 98 73 98 C 72.600006 98.099998 72.199997 98.199997 71.699997 98.199997 C 70.5 98.199997 69.399994 97.599998 68.5 96.800003 C 68.5 96.800003 68.199997 97 68.199997 97.099998 C 69.100006 98.099998 70.300003 98.699997 71.600006 98.699997 C 72.199997 98.699997 72.800003 98.599998 73.300003 98.300003 C 74.100006 98.900002 74.899994 99.199997 75.899994 99.400002 L 76 99.400002 C 76.399994 99.5 76.899994 99.5 77.300003 99.300003 C 77.600006 99.199997 77.899994 99 78.199997 98.800003 C 78.300003 98.699997 78.399994 98.599998 78.5 98.5 C 79 98.599998 79.399994 98.5 79.899994 98.400002 C 80.300003 98.300003 80.600006 98.099998 80.899994 97.800003 C 81.100006 97.599998 81.300003 97.400002 81.5 97.099998 C 81.899994 97.099998 82.300003 97.099998 82.699997 97 C 83 97 83.199997 96.800003 83.5 96.699997 C 83.699997 96.599998 83.800003 96.400002 83.899994 96.199997 C 83.399994 96.300003 82.899994 96.400002 82.300003 96.400002 L 82 96.5"/>
            <path id="path27" fill="#ffffff" stroke="none" d="M 84.199997 81.399994 C 83.199997 82 82.100006 82.600006 80.899994 83.100006 C 80.800003 83.300003 80.600006 83.5 80.399994 83.699997 C 80 84.199997 79.399994 84.5 78.800003 84.699997 C 78.800003 84.899994 78.800003 85 78.800003 85.100006 C 79.399994 85 80.100006 84.800003 80.699997 84.600006 C 84.800003 83.5 87.899994 81.899994 89.100006 80.5 L 89.199997 80.399994 C 89.600006 80 89.800003 79.5 89.899994 78.899994 C 90.100006 78.100006 90 77.300003 89.5 76.699997 C 88.100006 78.699997 86.199997 80.199997 84.199997 81.399994"/>
            <path id="path28" fill="#ffffff" stroke="none" d="M 89.100006 85.600006 L 88.899994 85.699997 C 87.5 86.699997 84.5 87.600006 80.600006 87.899994 L 80.600006 87.899994 C 80.300003 88.199997 80 88.5 79.600006 88.600006 C 79.199997 88.800003 78.800003 88.899994 78.399994 88.899994 C 78.399994 89.100006 78.300003 89.100006 78.300003 89.300003 L 78.399994 89.300003 C 82.699997 89.800003 86.100006 89.5 87.699997 88.699997 L 87.899994 88.600006 C 88.399994 88.300003 88.800003 88 89.199997 87.5 C 89.5 87.100006 89.600006 86.699997 89.699997 86.300003 C 89.800003 85.899994 89.800003 85.5 89.600006 85.100006 C 89.399994 85.300003 89.199997 85.5 89.100006 85.600006"/>
            <path id="path29" fill="#ffffff" stroke="none" d="M 80.5 77.5 C 80.5 78.100006 80.300003 78.600006 80 79.100006 C 79.699997 79.600006 79.300003 80.100006 78.699997 80.399994 C 78.699997 80.600006 78.699997 80.699997 78.699997 80.899994 C 80.5 79.899994 82.199997 78.600006 83.800003 77.100006 C 85.5 75.5 86.899994 73.600006 87.899994 71.399994 C 88.100006 70.899994 88.199997 70.300003 88.199997 69.699997 C 88.199997 68.600006 87.600006 67.5 86.600006 67 C 86.600006 67.300003 86.600006 67.5 86.600006 67.800003 C 86.399994 69.600006 84.800003 72.699997 82 75.899994 C 81.399994 76.399994 81 76.899994 80.5 77.5"/>
            <path id="path30" fill="#ffffff" stroke="none" d="M 81.100006 75.5 C 83.899994 72.199997 85.5 69.100006 85.600006 67.300003 C 85.800003 66.399994 85.5 65.399994 84.800003 64.800003 C 84.800003 66.399994 82.600006 70.300003 79.100006 74.699997 C 79.399994 75.5 79.300003 76.5 78.800003 77.199997 C 78.600006 77.5 78.399994 77.699997 78.199997 77.899994 C 78.199997 78.100006 78.300003 78.300003 78.300003 78.5 C 79.399994 77.5 80.300003 76.5 81.100006 75.5"/>
            <path id="path31" fill="#000000" stroke="none" d="M 59.399994 77.300003 L 59.100006 77.199997 C 59.100006 77.600006 59.100006 78 59.100006 78.399994 C 59.100006 79.399994 59 80.300003 58.699997 81.300003 C 58.600006 81.5 58.699997 81.699997 58.899994 81.800003 C 59 81.800003 59 81.800003 59.100006 81.800003 L 59.100006 81.800003 C 59.5 80.899994 59.899994 80.100006 60.399994 79.300003 C 60.5 79.100006 60.600006 79 60.699997 78.800003 C 60.600006 78.199997 60.100006 77.600006 59.399994 77.300003"/>
            <path id="path32" fill="#000000" stroke="none" d="M 91.399994 82.199997 C 91.399994 81.600006 91.199997 81 90.800003 80.399994 C 91.199997 79.800003 91.399994 79 91.399994 78.199997 C 91.399994 77.300003 91.100006 76.5 90.5 75.800003 C 90.800003 75.199997 91 74.5 91 73.800003 C 91 72.5 90.399994 71.300003 89.300003 70.600006 C 89.300003 70.300003 89.300003 70.100006 89.300003 69.800003 C 89.199997 67.800003 88.399994 66.5 86.899994 65.899994 C 86.600006 64.5 85.800003 63.300003 84.699997 62.399994 C 83.600006 67 80.199997 71.399994 79 73.100006 C 77 75.899994 76.600006 78.5 75.5 81.699997 C 74.199997 85.5 73.300003 89.5 69.899994 91.900002 C 69.899994 91.5 69.899994 91.099998 70 90.699997 C 70.600006 85.600006 74.699997 77.199997 73.199997 72.300003 C 73.100006 72 73 71.699997 72.899994 71.399994 C 71.399994 68.100006 68.100006 67.5 64.600006 69.100006 C 62.399994 70.100006 60.199997 70.899994 59.199997 73.199997 C 58.800003 74.100006 58.699997 75 58.699997 75.899994 C 58.699997 76.100006 58.800003 76.199997 59 76.300003 C 59.199997 76.399994 59.5 76.199997 59.600006 76 C 59.699997 75.800003 59.800003 75.600006 59.800003 75.300003 L 59.800003 75.300003 C 59.800003 75.199997 59.800003 75.199997 59.800003 75.100006 C 59.899994 74.800003 60.199997 74.699997 60.399994 74.800003 C 60.600006 74.899994 60.800003 75.199997 60.699997 75.399994 C 60.699997 75.399994 60.699997 75.399994 60.699997 75.399994 C 60.699997 75.399994 60.699997 75.5 60.600006 75.5 L 60.399994 75.800003 C 60.300003 76 60.199997 76.199997 60.199997 76.5 C 60.199997 76.800003 60.300003 77.100006 60.600006 77.199997 L 60.699997 77.199997 C 61.800003 77.5 63 77.100006 63.5 76.100006 C 63.800003 75.699997 64 75.300003 64.199997 74.800003 C 64.5 74.100006 64.5 73.300003 65.100006 72.600006 C 66 71.5 68.800003 70.800003 70 72.199997 C 72.300003 75 69.699997 78.699997 68.100006 81.100006 C 66.100006 84.100006 63.199997 87.600006 61.800003 91 C 58.100006 99.900002 64.399994 108.599998 74.600006 108.599998 C 81.100006 108.599998 85.199997 105.800003 87.5 102.400002 C 84.899994 102.199997 82.5 101.099998 80.699997 99.199997 C 81.300003 99.099998 81.800003 98.699997 82.199997 98.199997 L 83 98.099998 C 84 98.099998 84.899994 97.400002 85.199997 96.400002 C 85.399994 96 85.5 95.5 85.5 95 C 85.899994 94.800003 86.300003 94.400002 86.399994 93.900002 C 86.600006 93.5 86.699997 93.199997 86.699997 92.800003 C 87.800003 92.400002 88.600006 91.5 88.899994 90.5 C 89.100006 90 89.199997 89.5 89.100006 89.100006 C 90.300003 88.300003 91.100006 87 91.100006 85.5 C 91.100006 85.100006 91 84.600006 90.800003 84.300003 C 91.199997 83.899994 91.5 83.100006 91.399994 82.199997 M 89.600006 86.399994 C 89.5 86.800003 89.300003 87.199997 89.100006 87.600006 C 88.800003 88 88.300003 88.399994 87.800003 88.699997 L 87.600006 88.800003 C 86 89.600006 82.5 90 78.300003 89.399994 L 78.199997 89.399994 C 78.199997 89.199997 78.300003 89.199997 78.300003 89 C 78.699997 89 79.100006 88.899994 79.5 88.699997 C 79.899994 88.5 80.199997 88.300003 80.5 88 L 80.5 88 C 84.399994 87.699997 87.5 86.800003 88.800003 85.800003 L 89 85.699997 C 89.100006 85.600006 89.300003 85.5 89.399994 85.300003 C 89.699997 85.600006 89.800003 86 89.600006 86.399994 M 87.600006 90.5 C 87.5 90.900002 87.300003 91.199997 87 91.5 C 86.600006 91.800003 86.199997 92.099998 85.699997 92.199997 L 85.5 92.300003 C 84.100006 92.800003 81.199997 92.599998 77.800003 91.599998 C 77.800003 91.5 77.899994 91.300003 77.899994 91.199997 C 78 91.199997 78.199997 91.199997 78.300003 91.199997 C 78.899994 91.099998 79.5 90.900002 79.899994 90.400002 C 83.199997 90.599998 85.5 90.599998 86.800003 90.099998 C 87.100006 90 87.399994 89.899994 87.699997 89.800003 C 87.699997 90.099998 87.699997 90.300003 87.600006 90.5 M 82.800003 97.199997 C 82.399994 97.300003 82 97.300003 81.600006 97.300003 C 81.399994 97.599998 81.199997 97.800003 81 98 C 80.699997 98.300003 80.399994 98.5 80 98.599998 C 79.600006 98.699997 79.100006 98.800003 78.600006 98.699997 C 78.5 98.800003 78.399994 98.900002 78.300003 99 C 78.100006 99.199997 77.800003 99.400002 77.399994 99.5 C 77 99.599998 76.600006 99.599998 76.100006 99.599998 L 76 99.599998 C 75.100006 99.400002 74.199997 99 73.5 98.400002 C 71.699997 99.199997 69.5 98.699997 68.300003 97.099998 C 68.300003 97.099998 68.5 96.800003 68.600006 96.800003 C 69.399994 97.699997 70.600006 98.199997 71.800003 98.199997 C 72.199997 98.199997 72.600006 98.199997 73.100006 98 C 73.300003 97.900002 73.5 97.800003 73.699997 97.800003 C 74.399994 98.300003 75.100006 98.699997 75.899994 98.900002 L 76 98.900002 C 76.399994 99 76.800003 99 77.199997 98.900002 C 77.5 98.800003 77.699997 98.699997 78 98.5 C 76.899994 98.199997 75.800003 97.699997 74.899994 97 C 75 96.900002 75.199997 96.800003 75.300003 96.599998 C 76.199997 97.199997 77.199997 97.599998 78.199997 97.900002 L 78.399994 97.900002 C 78.899994 98 79.300003 98 79.800003 97.800003 C 80.199997 97.699997 80.5 97.5 80.800003 97.199997 L 81 97 C 79.399994 96.599998 77.899994 96 76.399994 95.199997 C 76.5 95 76.600006 94.900002 76.699997 94.699997 C 78.399994 95.699997 80.300003 96.300003 82.199997 96.5 L 82.399994 96.5 C 82.899994 96.5 83.5 96.400002 84 96.300003 C 83.899994 96.5 83.800003 96.699997 83.600006 96.800003 C 83.199997 97 83 97.099998 82.800003 97.199997 M 82.699997 95.400002 L 82.5 95.400002 C 80.5 95.300003 78.600006 94.699997 76.899994 93.699997 C 77 93.5 77 93.400002 77.100006 93.300003 C 77.800003 93.5 78.600006 93.300003 79.100006 92.800003 C 80.800003 93.400002 82.699997 93.599998 84.5 93.400002 L 84.699997 93.400002 C 84.899994 93.400002 85 93.300003 85.100006 93.300003 C 85.100006 93.699997 84.899994 94 84.699997 94.300003 C 84.5 94.599998 84.199997 94.900002 83.899994 95.099998 C 83.600006 95.199997 83.199997 95.400002 82.699997 95.400002 M 85.600006 67.300003 C 85.399994 69.100006 83.800003 72.199997 81.100006 75.5 C 80.199997 76.5 79.300003 77.5 78.399994 78.5 C 78.399994 78.300003 78.300003 78.100006 78.300003 77.899994 C 78.5 77.699997 78.699997 77.5 78.899994 77.199997 C 79.399994 76.5 79.5 75.5 79.199997 74.699997 C 82.699997 70.300003 84.800003 66.399994 84.899994 64.800003 C 85.600006 65.399994 85.899994 66.399994 85.600006 67.300003 M 86.5 67.100006 C 87.5 67.600006 88.100006 68.699997 88.100006 69.800003 C 88.100006 70.399994 88.100006 71 87.800003 71.5 C 86.800003 73.600006 85.399994 75.5 83.699997 77.199997 C 82.199997 78.699997 80.5 80 78.699997 81 C 78.699997 80.800003 78.699997 80.699997 78.699997 80.5 C 79.300003 80.199997 79.699997 79.699997 80 79.199997 C 80.300003 78.699997 80.5 78.100006 80.5 77.600006 C 81 77.100006 81.399994 76.600006 81.899994 76 C 84.699997 72.699997 86.300003 69.699997 86.5 67.899994 C 86.5 67.5 86.5 67.300003 86.5 67.100006 M 90 79 C 89.899994 79.5 89.600006 80 89.199997 80.399994 L 89.100006 80.5 C 87.899994 81.899994 84.800003 83.5 80.699997 84.600006 C 80.100006 84.800003 79.399994 84.899994 78.800003 85.100006 C 78.800003 84.899994 78.800003 84.800003 78.800003 84.699997 C 79.399994 84.5 80 84.199997 80.399994 83.699997 C 80.600006 83.5 80.699997 83.300003 80.800003 83.100006 C 81.899994 82.600006 83 82.100006 84.100006 81.399994 C 86.199997 80.199997 88 78.699997 89.5 76.800003 C 90.100006 77.399994 90.199997 78.199997 90 79 M 89.199997 75.5 L 89.100006 75.699997 C 88.300003 77.300003 85.600006 79.5 81.800003 81.600006 C 80.800003 82.100006 79.800003 82.699997 78.800003 83.100006 C 78.800003 82.899994 78.800003 82.800003 78.800003 82.600006 C 79.399994 82.300003 79.800003 81.899994 80.100006 81.300003 C 80.199997 81.199997 80.199997 81 80.300003 80.899994 C 81.800003 80 83.199997 78.899994 84.5 77.600006 C 86.199997 76 87.699997 74 88.699997 71.800003 C 89.399994 72.300003 89.699997 73.100006 89.699997 74 C 89.699997 74.5 89.600006 75 89.199997 75.5 M 88.899994 84.800003 L 88.699997 84.899994 C 87.300003 86 83.899994 86.899994 79.600006 87.100006 L 78.600006 87.100006 C 78.600006 86.899994 78.600006 86.800003 78.600006 86.699997 C 78.800003 86.699997 79 86.600006 79.199997 86.5 C 79.800003 86.300003 80.300003 85.899994 80.600006 85.399994 C 84.899994 84.399994 88.100006 82.800003 89.399994 81.5 L 89.5 81.300003 C 89.600006 81.199997 89.699997 81 89.800003 80.899994 C 90 81.300003 90.100006 81.699997 90.100006 82.100006 C 90.100006 82.5 90 83 89.800003 83.399994 C 89.699997 84 89.300003 84.399994 88.899994 84.800003"/>
            <path id="path33" fill="#21409a" stroke="none" d="M 85.699997 37 L 83.5 37 L 83.5 33.5 L 85.699997 33.5 C 85.699997 33.600006 85.699997 33.699997 85.699997 33.800003 C 85.699997 33.899994 85.699997 34 85.699997 34.100006 L 84.300003 34.100006 L 84.300003 34.899994 L 85.5 34.899994 C 85.5 35 85.5 35.100006 85.5 35.199997 C 85.5 35.300003 85.5 35.399994 85.5 35.5 L 84.300003 35.5 L 84.300003 36.399994 L 85.800003 36.399994 C 85.800003 36.5 85.800003 36.600006 85.800003 36.699997 C 85.699997 36.800003 85.699997 36.899994 85.699997 37"/>
            <path id="path34" fill="#21409a" stroke="none" d="M 88.899994 37 C 88.800003 37 88.600006 37 88.5 37 C 88.399994 37 88.199997 37 88.100006 37 L 87.399994 35.699997 L 87 35.699997 L 87 37 C 86.899994 37 86.699997 37 86.600006 37 C 86.5 37 86.399994 37 86.199997 37 L 86.199997 33.5 L 87.199997 33.5 C 88.100006 33.5 88.600006 33.800003 88.600006 34.600006 C 88.600006 35 88.300003 35.399994 88 35.600006 L 88.899994 37 Z M 87.399994 34 L 87.100006 34 L 87.100006 35.100006 L 87.399994 35.100006 C 87.800003 35.100006 88 34.899994 88 34.600006 C 88 34.300003 87.800003 34 87.399994 34"/>
            <path id="path35" fill="#21409a" stroke="none" d="M 91.5 37 L 89.300003 37 L 89.300003 33.5 L 91.5 33.5 C 91.5 33.600006 91.5 33.699997 91.5 33.800003 C 91.5 33.899994 91.5 34 91.5 34.100006 L 90.100006 34.100006 L 90.100006 34.899994 L 91.300003 34.899994 C 91.300003 35 91.300003 35.100006 91.300003 35.199997 C 91.300003 35.300003 91.300003 35.399994 91.300003 35.5 L 90.100006 35.5 L 90.100006 36.399994 L 91.600006 36.399994 C 91.600006 36.5 91.600006 36.600006 91.600006 36.699997 C 91.5 36.800003 91.5 36.899994 91.5 37"/>
            <path id="path36" fill="#21409a" stroke="none" d="M 84.600006 40.699997 L 84.199997 40.699997 L 84.199997 42 C 84.100006 42 83.899994 42 83.800003 42 C 83.699997 42 83.600006 42 83.399994 42 L 83.399994 38.399994 L 84.5 38.399994 C 85.300003 38.399994 85.899994 38.699997 85.899994 39.5 C 85.899994 40.300003 85.399994 40.699997 84.600006 40.699997 M 84.600006 39 L 84.300003 39 L 84.300003 40 L 84.600006 40 C 85 40 85.199997 39.899994 85.199997 39.5 C 85.199997 39.100006 85 38.899994 84.600006 39"/>
            <path id="path37" fill="#21409a" stroke="none" d="M 88.600006 41.899994 L 86.399994 41.899994 L 86.399994 38.300003 L 88.600006 38.300003 C 88.600006 38.399994 88.600006 38.5 88.600006 38.600006 C 88.600006 38.699997 88.600006 38.800003 88.600006 38.899994 L 87.199997 38.899994 L 87.199997 39.699997 L 88.399994 39.699997 C 88.399994 39.800003 88.399994 39.899994 88.399994 40 C 88.399994 40.100006 88.399994 40.199997 88.399994 40.300003 L 87.199997 40.300003 L 87.199997 41.199997 L 88.699997 41.199997 C 88.699997 41.300003 88.699997 41.399994 88.699997 41.5 C 88.699997 41.699997 88.699997 41.800003 88.600006 41.899994"/>
            <path id="path38" fill="#21409a" stroke="none" d="M 91.800003 41.899994 C 91.699997 41.899994 91.5 41.899994 91.399994 41.899994 C 91.300003 41.899994 91.100006 41.899994 91 41.899994 L 90.300003 40.600006 L 90 40.600006 L 90 41.899994 C 89.899994 41.899994 89.699997 41.899994 89.600006 41.899994 C 89.5 41.899994 89.399994 41.899994 89.199997 41.899994 L 89.199997 38.300003 C 89.399994 38.300003 90 38.300003 90.199997 38.300003 C 91.100006 38.300003 91.5 38.600006 91.5 39.399994 C 91.5 39.800003 91.199997 40.199997 90.899994 40.399994 L 91.800003 41.899994 Z M 90.300003 38.899994 L 90 38.899994 L 90 40 L 90.300003 40 C 90.699997 40 90.899994 39.800003 90.899994 39.5 C 90.899994 39.199997 90.600006 38.899994 90.300003 38.899994"/>
            <path id="path39" fill="#21409a" stroke="none" d="M 100.300003 37 C 100.199997 37 100 37 99.899994 37 C 99.800003 37 99.699997 37 99.5 37 L 99.199997 36.300003 L 98 36.300003 L 97.800003 37 C 97.699997 37 97.5 37 97.399994 37 C 97.300003 37 97.199997 37 97 37 L 98.199997 33.399994 L 98.600006 33.399994 L 99 33.399994 L 100.300003 37 Z M 99.100006 35.699997 L 98.800003 34.699997 C 98.800003 34.600006 98.699997 34.399994 98.699997 34.300003 L 98.699997 34.300003 C 98.699997 34.399994 98.600006 34.600006 98.600006 34.699997 L 98.300003 35.699997 L 99.100006 35.699997 Z"/>
            <path id="path40" fill="#21409a" stroke="none" d="M 103.300003 37 C 103.199997 37 103 37 102.899994 37 C 102.800003 37 102.600006 37 102.5 37 L 101.800003 35.699997 L 101.5 35.699997 L 101.5 37 C 101.399994 37 101.199997 37 101.100006 37 L 100.699997 37 L 100.699997 33.5 L 101.800003 33.5 C 102.699997 33.5 103.100006 33.800003 103.100006 34.600006 C 103.100006 35 102.800003 35.399994 102.5 35.600006 L 103.300003 37 Z M 101.800003 34 L 101.5 34 L 101.5 35.100006 L 101.800003 35.100006 C 102.199997 35.100006 102.399994 34.899994 102.399994 34.600006 C 102.399994 34.300003 102.100006 34 101.800003 34"/>
            <path id="path41" fill="#21409a" stroke="none" d="M 98.699997 39 L 97.800003 39 L 97.800003 41.899994 C 97.699997 41.899994 97.600006 41.899994 97.399994 41.899994 C 97.300003 41.899994 97.100006 41.899994 97 41.899994 L 97 39 L 96 39 C 96 38.899994 96 38.800003 96 38.699997 C 96 38.600006 96 38.5 96 38.399994 L 98.600006 38.399994 C 98.699997 38.600006 98.699997 38.800003 98.699997 39"/>
            <path id="path42" fill="#21409a" stroke="none" d="M 101.399994 41.899994 L 99.199997 41.899994 L 99.199997 38.300003 L 101.399994 38.300003 C 101.399994 38.399994 101.399994 38.5 101.399994 38.600006 C 101.399994 38.699997 101.399994 38.800003 101.399994 38.899994 L 100 38.899994 L 100 39.699997 L 101.199997 39.699997 C 101.199997 39.800003 101.199997 39.899994 101.199997 40 C 101.199997 40.100006 101.199997 40.199997 101.199997 40.300003 L 100 40.300003 L 100 41.199997 L 101.5 41.199997 C 101.5 41.300003 101.5 41.399994 101.5 41.5 C 101.399994 41.699997 101.399994 41.800003 101.399994 41.899994"/>
            <path id="path43" fill="#21409a" stroke="none" d="M 103 42 C 102.600006 42 102.199997 41.899994 101.899994 41.800003 C 101.899994 41.699997 101.899994 41.600006 101.899994 41.5 C 101.899994 41.399994 101.899994 41.199997 101.899994 41.100006 C 102.199997 41.199997 102.600006 41.300003 102.899994 41.300003 C 103.300003 41.300003 103.5 41.100006 103.5 40.899994 C 103.5 40.699997 103.300003 40.5 102.800003 40.399994 C 102.300003 40.199997 101.800003 40 101.800003 39.300003 C 101.800003 38.699997 102.399994 38.300003 103.100006 38.300003 C 103.399994 38.300003 103.699997 38.300003 104 38.399994 C 104 38.5 104 38.600006 104 38.699997 C 104 38.800003 104 38.899994 104 39 C 103.699997 38.899994 103.5 38.899994 103.199997 38.899994 C 102.800003 38.899994 102.600006 39 102.600006 39.199997 C 102.600006 39.399994 102.800003 39.600006 103.300003 39.699997 C 103.800003 39.800003 104.300003 40.199997 104.300003 40.800003 C 104.199997 41.5 103.699997 42 103 42 C 103 42 103 42 103 42"/>
            <path id="path44" fill="#21409a" stroke="none" d="M 47.599998 35.5 C 47.699997 35.699997 47.800003 35.899994 47.800003 36.199997 L 47.800003 36.199997 C 47.800003 36 47.900002 35.699997 48 35.5 L 48.400002 34.399994 C 48.5 34.100006 48.599998 33.800003 48.599998 33.5 L 49 33.5 L 49.400002 33.5 C 49.400002 33.899994 49.300003 34.199997 49.199997 34.600006 L 48.199997 37.100006 C 48.099998 37.100006 48 37.100006 47.900002 37.100006 C 47.800003 37.100006 47.699997 37.100006 47.599998 37.100006 L 46.699997 34.600006 C 46.599998 34.300003 46.5 33.899994 46.5 33.5 L 46.900002 33.5 L 47.300003 33.5 C 47.300003 33.800003 47.400002 34.100006 47.5 34.399994 L 47.599998 35.5 Z"/>
            <path id="path45" fill="#21409a" stroke="none" d="M 50.5 37 C 50.400002 37 50.199997 37 50.099998 37 C 50 37 49.800003 37 49.699997 37 L 49.699997 33.5 L 50.099998 33.5 L 50.5 33.5 L 50.5 37 Z"/>
            <path id="path46" fill="#21409a" stroke="none" d="M 53.600006 34.100006 L 52.600006 34.100006 L 52.600006 37 C 52.5 37 52.399994 37 52.199997 37 C 52.100006 37 51.900002 37 51.800003 37 L 51.800003 34.100006 L 51 34.100006 C 51 34 51 33.899994 51 33.800003 C 51 33.699997 51 33.600006 51 33.5 L 53.600006 33.5 C 53.600006 33.600006 53.600006 33.699997 53.600006 33.800003 C 53.699997 33.899994 53.699997 34 53.600006 34.100006"/>
            <path id="path47" fill="#21409a" stroke="none" d="M 49.300003 41.899994 C 49.199997 41.899994 49 41.899994 48.900002 41.899994 C 48.800003 41.899994 48.699997 41.899994 48.5 41.899994 L 48.199997 41.199997 L 47 41.199997 L 46.800003 41.899994 C 46.699997 41.899994 46.5 41.899994 46.400002 41.899994 C 46.300003 41.899994 46.099998 41.899994 46 41.899994 L 47.199997 38.300003 C 47.300003 38.300003 47.400002 38.300003 47.599998 38.300003 C 47.699997 38.300003 47.800003 38.300003 48 38.300003 L 49.300003 41.899994 Z M 48.099998 40.600006 L 47.800003 39.600006 C 47.800003 39.5 47.699997 39.300003 47.699997 39.199997 L 47.699997 39.199997 C 47.699997 39.300003 47.599998 39.5 47.599998 39.600006 L 47.300003 40.600006 L 48.099998 40.600006 Z"/>
            <path id="path48" fill="#21409a" stroke="none" d="M 53.399994 41.899994 C 53.300003 41.899994 53.199997 42 53 42 C 52.899994 42 52.800003 42 52.600006 42 L 52.5 39.899994 L 51.699997 41.699997 C 51.599998 41.699997 51.5 41.699997 51.400002 41.699997 C 51.300003 41.699997 51.199997 41.699997 51.099998 41.699997 L 50.300003 39.899994 L 50.199997 42 C 50.099998 42 49.900002 42 49.800003 42 C 49.699997 42 49.599998 42 49.5 42 L 49.699997 38.399994 C 49.800003 38.399994 49.900002 38.399994 50 38.399994 C 50.099998 38.399994 50.199997 38.399994 50.300003 38.399994 L 51.300003 40.800003 L 52.300003 38.399994 L 52.600006 38.399994 C 52.699997 38.399994 52.800003 38.399994 52.899994 38.399994 L 53.399994 41.899994 Z"/>
            <path id="path49" fill="#21409a" stroke="none" d="M 61.100006 37 L 58.899994 37 L 58.899994 33.5 L 61.100006 33.5 C 61.100006 33.600006 61.100006 33.699997 61.100006 33.800003 C 61.100006 33.899994 61.100006 34 61.100006 34.100006 L 59.699997 34.100006 L 59.699997 34.899994 L 60.899994 34.899994 C 60.899994 35 60.899994 35.100006 60.899994 35.199997 C 60.899994 35.300003 60.899994 35.399994 60.899994 35.5 L 59.699997 35.5 L 59.699997 36.399994 L 61.199997 36.399994 C 61.199997 36.5 61.199997 36.600006 61.199997 36.699997 C 61.100006 36.800003 61.100006 36.899994 61.100006 37"/>
            <path id="path50" fill="#21409a" stroke="none" d="M 61.899994 36 L 62.600006 35.100006 L 62 34.199997 C 61.800003 34 61.699997 33.699997 61.600006 33.399994 L 62 33.399994 L 62.399994 33.399994 C 62.399994 33.600006 62.5 33.800003 62.699997 34 L 63.100006 34.5 L 63.5 34 C 63.600006 33.800003 63.699997 33.600006 63.800003 33.399994 L 64.199997 33.399994 L 64.600006 33.399994 C 64.600006 33.699997 64.399994 34 64.199997 34.300003 L 63.600006 35.100006 L 64.300003 36.100006 C 64.5 36.399994 64.600006 36.699997 64.699997 37.100006 C 64.600006 37.100006 64.399994 37.100006 64.300003 37.100006 C 64.199997 37.100006 64.100006 37.100006 63.899994 37.100006 C 63.899994 36.899994 63.800003 36.600006 63.699997 36.5 L 63.199997 35.699997 L 62.699997 36.399994 C 62.600006 36.600006 62.5 36.800003 62.5 37.100006 C 62.399994 37.100006 62.199997 37.100006 62.100006 37.100006 C 62 37.100006 61.899994 37.100006 61.699997 37.100006 C 61.5 36.699997 61.699997 36.300003 61.899994 36"/>
            <path id="path51" fill="#21409a" stroke="none" d="M 67.100006 34.199997 C 66.800003 34.100006 66.600006 34.100006 66.300003 34.100006 C 65.699997 34.100006 65.300003 34.5 65.300003 35.300003 C 65.300003 36.100006 65.600006 36.5 66.300003 36.5 C 66.600006 36.5 66.800003 36.5 67.100006 36.399994 C 67.100006 36.5 67.199997 36.600006 67.199997 36.800003 C 67.199997 36.899994 67.199997 37 67.199997 37 C 66.899994 37.100006 66.600006 37.199997 66.300003 37.199997 C 65.399994 37.300003 64.699997 36.600006 64.600006 35.800003 C 64.600006 35.699997 64.600006 35.600006 64.600006 35.399994 C 64.5 34.5 65.199997 33.600006 66.100006 33.5 C 66.199997 33.5 66.300003 33.5 66.399994 33.5 C 66.699997 33.5 67 33.600006 67.300003 33.699997 C 67.300003 33.800003 67.300003 33.899994 67.300003 33.899994 C 67.199997 33.899994 67.199997 34.100006 67.100006 34.199997"/>
            <path id="path52" fill="#21409a" stroke="none" d="M 60 42 C 59 42 58.5 41.300003 58.5 40.199997 C 58.5 39.100006 59 38.399994 60 38.399994 C 61 38.399994 61.5 39.100006 61.5 40.199997 C 61.5 41.300003 61 42 60 42 M 60 39 C 59.600006 39 59.300003 39.300003 59.300003 40.199997 C 59.300003 41 59.600006 41.399994 60 41.399994 C 60.399994 41.399994 60.699997 41.100006 60.699997 40.199997 C 60.699997 39.300003 60.5 39 60 39"/>
            <path id="path53" fill="#21409a" stroke="none" d="M 64.100006 41.899994 L 61.899994 41.899994 L 61.899994 38.300003 C 62 38.300003 62.100006 38.300003 62.300003 38.300003 C 62.399994 38.300003 62.600006 38.300003 62.699997 38.300003 L 62.699997 41.199997 L 64.100006 41.199997 C 64.100006 41.300003 64.100006 41.399994 64.100006 41.5 C 64.100006 41.699997 64.100006 41.800003 64.100006 41.899994"/>
            <path id="path54" fill="#21409a" stroke="none" d="M 67.100006 40.600006 C 67.100006 41.5 66.800003 42 65.699997 42 C 64.600006 42 64.399994 41.5 64.399994 40.600006 L 64.399994 38.399994 C 64.5 38.399994 64.600006 38.399994 64.800003 38.399994 C 64.899994 38.399994 65.100006 38.399994 65.199997 38.399994 L 65.199997 40.699997 C 65.199997 41.199997 65.300003 41.5 65.800003 41.5 C 66.300003 41.5 66.399994 41.199997 66.399994 40.699997 L 66.399994 38.399994 C 66.5 38.399994 66.699997 38.399994 66.800003 38.399994 C 66.899994 38.399994 67 38.399994 67.199997 38.399994 L 67.199997 40.600006 Z"/>
        </g>
    </g>
    <path id="path55" fill="none" stroke="none" d="M -25 9 L 175 9 L 175 209 L -25 209 Z"/>
</svg>
